<svg xmlns="http://www.w3.org/2000/svg" viewBox="0 0 20 20" fill="none">
  <path d="M9.664 1.573a.75.75 0 0 1 .672 0l6.75 3.375A.75.75 0 0 1 17.5 5.62v2.38c0 4.358-2.722 8.22-6.8 9.76a.75.75 0 0 1-.4.001C6.222 16.22 2.5 12.358 2.5 8V5.62a.75.75 0 0 1 .414-.672l6.75-3.375ZM10 3.08 3.5 6.155V8c0 3.746 2.32 7.02 5.753 8.45L9.5 16.54v.001L10 16.73l.247-.088.253-.1v-.001l.247-.09C14.18 15.02 16.5 11.746 16.5 8V6.155L10 3.08Zm0 4.17a1.25 1.25 0 0 1 .75 2.25V11a.75.75 0 0 1-1.5 0V9.5A1.25 1.25 0 0 1 10 7.25Z" fill="#00c2a8"/>
</svg>
